<?xml version="1.0" encoding="UTF-8" standalone="no"?>
<!-- Generator: Adobe Illustrator 22.1.0, SVG Export Plug-In . SVG Version: 6.00 Build 0)  -->

<svg
   version="1.1"
   id="Capa_1"
   x="0px"
   y="0px"
   viewBox="0 0 354 331"
   style="enable-background:new 0 0 354 331;"
   xml:space="preserve"
   sodipodi:docname="logo_UA.svg"
   inkscape:version="1.1.2 (0a00cf5339, 2022-02-04)"
   xmlns:inkscape="http://www.inkscape.org/namespaces/inkscape"
   xmlns:sodipodi="http://sodipodi.sourceforge.net/DTD/sodipodi-0.dtd"
   xmlns="http://www.w3.org/2000/svg"
   xmlns:svg="http://www.w3.org/2000/svg"><defs
   id="defs195" /><sodipodi:namedview
   id="namedview193"
   pagecolor="#ffffff"
   bordercolor="#666666"
   borderopacity="1.0"
   inkscape:pageshadow="2"
   inkscape:pageopacity="0.0"
   inkscape:pagecheckerboard="0"
   showgrid="false"
   inkscape:zoom="1.6705665"
   inkscape:cx="207.41467"
   inkscape:cy="191.85109"
   inkscape:window-width="1870"
   inkscape:window-height="1016"
   inkscape:window-x="0"
   inkscape:window-y="0"
   inkscape:window-maximized="1"
   inkscape:current-layer="Capa_1" />
<style
   type="text/css"
   id="style2">
	.st0{fill:#FFFFFF;}
</style>

<path
   style="fill:#000000;stroke:#000000;stroke-width:1px;stroke-linecap:butt;stroke-linejoin:miter;stroke-opacity:1"
   d="m 282.72463,223.9235 c 0,0 10.83423,53.37706 -105.43417,88.05052 -0.22898,0.4621 -80.093528,-11.08855 -105.827136,-88.04386 -0.201943,-0.19196 211.261306,-0.007 211.261306,-0.007 z"
   id="path663" /><path
   style="fill:#000000;stroke:#000000;stroke-width:1px;stroke-linecap:butt;stroke-linejoin:miter;stroke-opacity:1"
   d="M 177.29712,22.439665 67.247289,66.145226 71.463324,223.93016 177.29046,311.97402 282.72463,223.9235 287.34695,66.138566 Z"
   id="path659" /><path
   class="b"
   d="m 164.7023,267.46255 c 0.13321,-0.0666 0.24643,-0.14653 0.353,-0.2531 0.10656,-0.10656 0.18649,-0.21979 0.25309,-0.353 0.0666,-0.13321 0.0932,-0.26641 0.0932,-0.39962 v -2.83067 c 0,-0.13321 -0.0333,-0.26642 -0.0932,-0.39963 -0.0599,-0.13321 -0.14653,-0.24643 -0.25309,-0.353 -0.10657,-0.10656 -0.21979,-0.18649 -0.353,-0.25309 -0.13321,-0.0599 -0.25976,-0.0932 -0.38631,-0.0932 h -5.26171 v -0.74596 h 6.35402 V 259.943 h -7.21988 c -0.12654,0 -0.25309,0.0333 -0.3863,0.0933 -0.13321,0.0666 -0.24643,0.14653 -0.353,0.2531 -0.10657,0.10656 -0.18649,0.21979 -0.2531,0.353 -0.0666,0.1332 -0.0932,0.26641 -0.0932,0.39962 v 2.0514 c 0,0.13321 0.0333,0.26642 0.0932,0.39963 0.0599,0.13321 0.14653,0.24643 0.2531,0.353 0.10657,0.10657 0.21979,0.18649 0.353,0.2531 0.13321,0.0666 0.25976,0.0932 0.3863,0.0932 h 5.26172 v 1.51857 h -7.12663 v 1.83827 h 7.99914 c 0.12655,0 0.2531,-0.0333 0.38631,-0.0932 z"
   id="path6-3"
   style="fill:#ffffff;stroke-width:0.66604" /><rect
   class="b"
   x="167.11336"
   y="259.94293"
   width="1.9714792"
   height="7.6128402"
   id="rect8"
   style="fill:#ffffff;stroke-width:0.66604" /><path
   class="b"
   d="m 176.16485,265.71086 c 0.39296,0.34634 0.71932,0.6061 0.96576,0.77261 0.24643,0.17317 0.44624,0.26642 0.59277,0.2864 0.007,0.007 0.0333,0.0133 0.0666,0.0133 h 0.37964 c 0.14653,0 0.2864,-0.0266 0.41961,-0.0733 0.1332,-0.0466 0.25309,-0.11322 0.353,-0.19981 0.0999,-0.0799 0.17983,-0.17317 0.23977,-0.27308 0.06,-0.0999 0.0866,-0.20647 0.0866,-0.31303 v -5.98771 h -1.95816 v 4.26932 c -0.78593,-0.74596 -1.46529,-1.3787 -2.0181,-1.91153 -0.55948,-0.53284 -1.02571,-0.96576 -1.40535,-1.30544 -0.37964,-0.33968 -0.69268,-0.59278 -0.93245,-0.75929 -0.23978,-0.16651 -0.43959,-0.25975 -0.59278,-0.27973 -0.007,-0.007 -0.0333,-0.0133 -0.0799,-0.0133 h -0.36632 c -0.15319,0 -0.29972,0.0267 -0.43292,0.0733 -0.13321,0.0466 -0.2531,0.11323 -0.353,0.19981 -0.0999,0.0799 -0.17984,0.17317 -0.23978,0.27974 -0.0599,0.10656 -0.0866,0.20647 -0.0866,0.30638 v 6.7603 h 1.95815 v -5.05524 c 0.75929,0.73264 1.41867,1.36538 1.97814,1.89821 0.55948,0.53284 1.03237,0.96576 1.42533,1.3121 z"
   id="path10-6"
   style="fill:#ffffff;stroke-width:0.66604" /><path
   class="b"
   d="m 188.73303,267.46255 c 0.13321,-0.0666 0.24643,-0.14653 0.353,-0.2531 0.10657,-0.10656 0.18649,-0.21979 0.2531,-0.353 0.0666,-0.13321 0.0932,-0.26641 0.0932,-0.39962 v -1.55188 h -1.95816 v 0.81923 h -4.52907 v -3.94295 h 4.52907 v 0.81923 h 1.95816 v -1.55188 c 0,-0.13321 -0.0333,-0.26641 -0.0932,-0.39962 -0.06,-0.13321 -0.14653,-0.24644 -0.2531,-0.353 -0.10657,-0.10657 -0.21979,-0.1865 -0.353,-0.2531 -0.13321,-0.0599 -0.25976,-0.0932 -0.3863,-0.0932 h -6.26744 c -0.12655,0 -0.2531,0.0333 -0.38631,0.0932 -0.1332,0.0666 -0.24643,0.14653 -0.353,0.2531 -0.10656,0.10656 -0.18649,0.21979 -0.25309,0.353 -0.0666,0.13321 -0.0933,0.26641 -0.0933,0.39962 v 5.41491 c 0,0.13321 0.0333,0.27308 0.0933,0.39962 0.0599,0.13321 0.14653,0.24644 0.25309,0.353 0.10657,0.10657 0.2198,0.1865 0.353,0.2531 0.13321,0.0599 0.25976,0.0932 0.38631,0.0932 h 6.26744 c 0.12654,0 0.25309,-0.0333 0.3863,-0.0932 z"
   id="path12-7"
   style="fill:#ffffff;stroke-width:0.66604" /><path
   class="b"
   d="m 198.81688,261.77457 v -1.83828 h -6.58048 c -0.12655,0 -0.25309,0.0333 -0.3863,0.0933 -0.13321,0.0666 -0.24644,0.14653 -0.353,0.2531 -0.10657,0.10656 -0.1865,0.21979 -0.2531,0.353 -0.0599,0.1332 -0.0933,0.26641 -0.0933,0.39962 v 5.41491 c 0,0.13321 0.0333,0.27307 0.0933,0.39962 0.0666,0.13321 0.14653,0.24644 0.2531,0.353 0.10656,0.10657 0.21979,0.18649 0.353,0.2531 0.13321,0.0599 0.25975,0.0932 0.3863,0.0932 h 6.58048 v -1.83827 h -5.71463 v -1.51857 h 5.70131 v -1.67176 h -5.70131 v -0.74596 z"
   id="path14-5"
   style="fill:#ffffff;stroke-width:0.66604" /><polygon
   class="b"
   points="393.58,468.07 402.23,468.07 397.87,459.98 "
   id="polygon16"
   style="fill:#ffffff"
   transform="matrix(0.66604024,0,0,0.66604024,-21.043005,-110.20225)" /><path
   class="b"
   d="M 300.94083,169.83437 H 53.660068 v 47.6685 H 300.94083 Z M 99.123975,206.45992 c 0,0.35967 -0.08658,0.71933 -0.259756,1.06567 -0.17317,0.34634 -0.406284,0.65938 -0.686021,0.93911 -0.286397,0.27974 -0.606097,0.49953 -0.965758,0.66604 -0.359662,0.16651 -0.712664,0.2531 -1.059004,0.2531 H 79.022881 c -0.346341,0 -0.699343,-0.0866 -1.059004,-0.2531 -0.359662,-0.16651 -0.679361,-0.39296 -0.965759,-0.66604 -0.286397,-0.27307 -0.512851,-0.58611 -0.686021,-0.93911 -0.173171,-0.34634 -0.259756,-0.706 -0.259756,-1.06567 v -15.22568 h 5.354964 v 13.28085 h 12.375027 v -13.28085 h 5.354964 v 15.22568 z m 25.535985,0.64606 c 0,0.2864 -0.0799,0.56614 -0.23978,0.83255 -0.15985,0.26642 -0.37964,0.50619 -0.65272,0.71933 -0.27307,0.21979 -0.59277,0.39296 -0.96575,0.52617 -0.37299,0.13321 -0.75929,0.19981 -1.15225,0.19981 h -1.03903 c -0.0999,0 -0.15985,-0.0133 -0.18649,-0.0333 -0.39962,-0.0466 -0.93245,-0.29972 -1.61848,-0.75929 -0.67936,-0.45957 -1.55853,-1.14559 -2.63752,-2.05806 -1.07898,-0.91248 -2.37776,-2.07805 -3.90299,-3.48339 -1.52523,-1.40535 -3.32354,-3.08377 -5.40825,-5.03527 v 11.36265 h -5.35496 v -15.8784 c 0,-0.26642 0.0799,-0.53283 0.23977,-0.81257 0.15985,-0.27308 0.37965,-0.52617 0.65272,-0.7393 0.27308,-0.2198 0.59278,-0.39297 0.96576,-0.52618 0.37298,-0.1332 0.76595,-0.19981 1.19221,-0.19981 h 1.00572 c 0.12655,0 0.19982,0.0133 0.22646,0.0333 0.4196,0.0466 0.9591,0.29306 1.61848,0.73931 0.65938,0.44625 1.50525,1.11895 2.54427,2.0181 1.03902,0.89916 2.32448,2.05807 3.84971,3.46341 1.52523,1.40535 3.3635,3.09709 5.52148,5.06857 v -11.32935 h 5.35496 v 15.8784 z m 7.76603,2.2712 h -5.38827 v -18.1496 h 5.38827 z m 18.65578,-2.59756 c -0.86585,1.73171 -2.10468,2.59756 -3.7165,2.59756 h -1.89822 c -0.81922,0 -1.54521,-0.23977 -2.17129,-0.71932 -0.63273,-0.47955 -1.14559,-1.10563 -1.54521,-1.87824 l -7.6195,-15.55204 h 6.06097 l 6.24079,12.41499 6.2075,-12.41499 h 6.06096 z m 29.91853,-10.68328 h -15.61198 v 1.9848 h 15.57202 v 4.43583 h -15.57202 v 1.9848 h 15.61198 v 4.86875 h -17.98975 c -0.34634,0 -0.69934,-0.0866 -1.059,-0.2531 -0.35966,-0.16651 -0.67936,-0.39296 -0.96576,-0.66604 -0.28639,-0.27307 -0.51285,-0.58611 -0.68602,-0.93911 -0.17317,-0.34634 -0.25975,-0.70601 -0.25975,-1.06567 v -12.30176 c 0,-0.35966 0.0866,-0.71266 0.25975,-1.06567 0.17317,-0.353 0.39963,-0.65937 0.68602,-0.93911 0.2864,-0.27974 0.6061,-0.49953 0.96576,-0.66604 0.35966,-0.16651 0.71266,-0.2531 1.059,-0.2531 h 17.98975 v 4.86876 z m 18.65579,13.28084 -5.46153,-6.85355 h -5.46153 v 6.85355 h -5.35496 v -11.29604 h 16.35128 v -1.9848 h -16.35128 v -4.86876 h 18.72905 c 0.34634,0 0.69934,0.0866 1.059,0.2531 0.35966,0.16651 0.67936,0.39296 0.96576,0.66604 0.2864,0.27974 0.51285,0.58611 0.68602,0.93912 0.17317,0.353 0.25976,0.706 0.25976,1.06566 v 5.44821 c 0,0.35966 -0.0866,0.71932 -0.25976,1.06566 -0.17317,0.34634 -0.39962,0.65938 -0.68602,0.93912 -0.2864,0.27974 -0.6061,0.49953 -0.96576,0.66604 -0.35966,0.16651 -0.71266,0.2531 -1.059,0.2531 h -1.52524 l 5.12851,6.85355 h -6.06096 z m 30.478,-13.28084 h -17.35701 v 1.9848 h 14.37981 c 0.34634,0 0.69934,0.0866 1.059,0.25309 0.35967,0.16651 0.67937,0.39297 0.96576,0.66604 0.2864,0.27974 0.51285,0.59278 0.68602,0.93912 0.17317,0.34634 0.25976,0.706 0.25976,1.06566 v 5.44821 c 0,0.35966 -0.0866,0.71933 -0.25976,1.06567 -0.17317,0.34634 -0.39962,0.65938 -0.68602,0.93911 -0.28639,0.27974 -0.60609,0.49953 -0.96576,0.66604 -0.35966,0.16651 -0.71266,0.2531 -1.059,0.2531 h -19.73477 v -4.86875 h 17.35701 v -1.9848 h -14.38647 c -0.34634,0 -0.69934,-0.0866 -1.05901,-0.2531 -0.35966,-0.16651 -0.67936,-0.39296 -0.96575,-0.66604 -0.2864,-0.27308 -0.51286,-0.58612 -0.68603,-0.93912 -0.17317,-0.34634 -0.25975,-0.706 -0.25975,-1.06566 v -5.44821 c 0,-0.35966 0.0866,-0.71266 0.25975,-1.06566 0.17317,-0.35301 0.39963,-0.65938 0.68603,-0.93912 0.28639,-0.27974 0.60609,-0.49953 0.96575,-0.66604 0.35967,-0.16651 0.71267,-0.2531 1.05901,-0.2531 h 19.73477 v 4.86876 z m 20.32755,13.28084 -1.48527,-3.03048 h -10.07053 l -1.48527,3.03048 h -5.94774 l 7.6528,-15.55204 c 0.83921,-1.7317 2.11801,-2.59756 3.82973,-2.59756 h 2.37777 c 0.83921,0 1.51857,0.2198 2.02476,0.64606 0.50619,0.43293 0.97242,1.08565 1.39202,1.9515 l 7.65281,15.55204 h -5.94774 z m 28.10024,0 h -17.84322 c -0.34634,0 -0.69934,-0.0866 -1.05901,-0.2531 -0.35966,-0.16651 -0.67936,-0.39296 -0.96575,-0.66604 -0.2864,-0.27307 -0.51286,-0.58611 -0.68603,-0.93911 -0.17317,-0.34634 -0.25975,-0.70601 -0.25975,-1.06567 v -15.22568 h 5.3483 v 13.28085 h 15.4588 v 4.86875 z"
   id="path18-3"
   style="fill:#ffffff;stroke-width:0.66604" /><path
   class="b"
   d="m 331.56536,181.23032 h -24.2039 v 42.69318 h -24.63683 c -0.0666,0.706 -0.12655,1.42532 -0.19315,2.14465 -2.80403,10.277 -7.5529,19.88796 -14.37315,28.7796 -20.96695,27.36093 -56.26042,41.96053 -86.96488,55.41454 l -3.90299,1.71173 -3.903,-1.71173 C 159.82022,304.32122 146.21968,298.51334 133.12533,291.55988 103.4932,275.81469 79.082824,255.28733 71.463324,223.93016 H 47.219459 V 181.23698 H 20.311433 l 14.639565,26.68157 -8.571938,25.14968 h 38.204068 c 9.884037,30.01177 34.374337,50.65902 64.272882,66.54408 13.2875,7.06003 27.10784,12.97447 40.88155,19.00213 l 7.55956,3.31022 7.55955,-3.31022 c 32.50277,-14.23994 68.31575,-29.21253 90.54151,-58.21858 6.51388,-8.50533 11.34267,-17.63674 14.54632,-27.32763 h 35.54657 l -8.57194,-25.14968 14.63957,-26.68157 z"
   id="path20-5"
   style="fill:#ffffff;stroke-width:0.66604" /><path
   class="b"
   d="m 68.472803,161.9751 -1.225514,-95.829874 5.528134,-1.65178 c 7.61284,-2.271197 15.179057,-4.895396 22.658689,-7.559557 9.504398,-3.390144 18.955508,-6.946799 28.346668,-10.630002 9.41781,-3.689863 18.79566,-7.512934 28.06694,-11.555798 7.19323,-3.137049 14.533,-6.427288 21.43984,-10.143793 l 4.00956,-2.164631 4.00956,2.157971 c 6.90684,3.723165 14.2466,7.013404 21.43984,10.143793 9.27128,4.042864 18.64912,7.865935 28.06693,11.555798 9.39117,3.683202 18.84894,7.239857 28.34667,10.630002 7.47964,2.670821 15.04585,5.28836 22.65869,7.559557 l 5.52814,1.65178 -1.22552,95.829874 h 9.12475 l 1.3121,-102.596843 -12.12859,-3.616599 c -7.47963,-2.231235 -14.8527,-4.788829 -22.20578,-7.413028 -9.41781,-3.356842 -18.77568,-6.880195 -28.08692,-10.530096 -9.3179,-3.6499 -18.58252,-7.433009 -27.75389,-11.42925 -7.00675,-3.057125 -14.02681,-6.187514 -20.76048,-9.817433 l -8.33882,-4.489112 -8.33883,4.489112 c -6.73366,3.629919 -13.74707,6.760308 -20.76047,9.817433 -9.17138,3.996241 -18.44266,7.772689 -27.7539,11.42925 -9.31124,3.649901 -18.66911,7.173254 -28.086915,10.530096 -7.346423,2.617539 -14.726149,5.181793 -22.205781,7.413028 L 58.009311,59.371597 59.32141,161.96844 h 9.124752 z"
   id="path22-6"
   style="fill:#ffffff;stroke-width:0.66604" /><path
   class="b"
   d="m 178.04974,73.178611 c -28.06027,0 -50.80555,22.745274 -50.80555,50.805549 0,15.11911 6.60712,28.68635 17.0906,37.99094 h 67.42991 c 10.47681,-9.30459 17.09059,-22.87183 17.09059,-37.99094 0,-28.060275 -22.74527,-50.805549 -50.80555,-50.805549 z m 33.71496,73.037969 c 0,1.08565 -0.25309,2.15797 -0.75929,3.21032 -0.50619,1.05234 -1.17889,1.99812 -2.01144,2.83067 -0.83255,0.83255 -1.77832,1.50525 -2.83067,2.01144 -1.05234,0.50619 -2.0847,0.75929 -3.10375,0.75929 h -50.15949 c -1.01904,0 -2.0514,-0.2531 -3.10374,-0.75929 -1.05235,-0.50619 -1.99812,-1.17889 -2.83067,-2.01144 -0.83255,-0.83255 -1.50526,-1.77833 -2.01145,-2.83067 -0.50619,-1.05235 -0.75928,-2.12467 -0.75928,-3.21032 v -45.91681 h 15.67192 v 40.04234 h 36.23259 v -40.04234 h 15.66527 z"
   id="path24-2"
   style="fill:#ffffff;stroke-width:0.66604" /><path
   class="b"
   d="m 109.8006,153.26995 c -1.81829,-1.03902 -3.42345,-2.55093 -4.43583,-4.17607 1.77833,0.44624 3.56332,1.45863 5.47485,2.79071 -0.87251,-8.92494 -9.76415,-7.17326 -12.688064,-7.59952 -0.233114,6.00102 7.892574,11.0496 11.649044,8.99154 z"
   id="path26-9"
   style="fill:#ffffff;stroke-width:0.66604" /><path
   class="b"
   d="m 105.0917,137.69793 c -1.36539,-1.64512 -2.37777,-3.6499 -2.81069,-5.54812 1.51857,1.07233 2.85731,2.68415 4.22269,4.63564 2.03142,-8.65852 -6.820251,-10.31696 -9.417808,-11.80223 -2.131329,5.51481 3.843048,13.24088 8.005808,12.71471 z"
   id="path28-1"
   style="fill:#ffffff;stroke-width:0.66604" /><path
   class="b"
   d="m 105.63785,122.39898 c -1.11229,-1.71838 -1.85825,-3.73648 -2.07139,-5.58141 1.31876,1.19887 2.41773,2.88395 3.49671,4.89539 2.83068,-7.92588 -5.35496,-10.57672 -7.646137,-12.2951 -2.590897,4.94868 2.231237,12.9678 6.220817,12.98779 z"
   id="path30-2"
   style="fill:#ffffff;stroke-width:0.66604" /><path
   class="b"
   d="m 104.95849,93.612725 c -3.29024,3.936298 -0.40629,12.295105 3.21697,13.180935 -0.69268,-1.81163 -0.9924,-3.80975 -0.83255,-5.53479 0.97242,1.3787 1.65844,3.15703 2.26454,5.22175 4.06284,-6.593795 -2.8773,-10.796509 -4.6423,-12.867895 z"
   id="path32-7"
   style="fill:#ffffff;stroke-width:0.66604" /><path
   class="b"
   d="m 112.22499,93.173139 c 0.0533,-1.81163 0.50619,-3.623259 1.24549,-5.015283 0.33968,1.565194 0.2864,3.343522 0.0733,5.334982 5.76124,-3.902996 1.37204,-10.303642 0.61275,-12.774652 -4.16941,1.97148 -4.68226,10.217058 -1.93151,12.454953 z"
   id="path34-0"
   style="fill:#ffffff;stroke-width:0.66604" /><path
   class="b"
   d="m 123.10808,71.83987 c -4.04952,0.839211 -6.03432,8.012464 -4.02288,10.583379 0.3863,-1.585175 1.12561,-3.090426 2.03808,-4.162751 0,1.458628 -0.37298,3.017162 -0.93245,4.728886 5.81453,-2.197933 3.13039,-8.805052 2.91725,-11.149514 z"
   id="path36-9"
   style="fill:#ffffff;stroke-width:0.66604" /><path
   class="b"
   d="m 128.29654,71.913134 c 0.59943,-1.278797 1.48527,-2.411065 2.44437,-3.143709 -0.24644,1.245495 -0.83256,2.49765 -1.60516,3.849712 5.33498,-0.719323 4.17607,-6.886856 4.39586,-8.924939 -3.59661,-0.08658 -6.51387,5.62804 -5.24173,8.218936 z"
   id="path38-3"
   style="fill:#ffffff;stroke-width:0.66604" /><path
   class="b"
   d="m 146.40617,63.327876 c -2.75074,-2.504312 -8.35214,-0.0333 -8.86499,2.850652 1.21219,-0.586115 2.56425,-0.872513 3.72982,-0.785927 -0.91247,0.799248 -2.10469,1.385363 -3.49005,1.911535 4.56904,3.050464 7.25984,-2.530953 8.61856,-3.9696 z"
   id="path40-6"
   style="fill:#ffffff;stroke-width:0.66604" /><path
   class="b"
   d="m 131.28706,74.843712 c 1.42532,-0.379643 2.71744,-0.599437 3.88301,-0.472889 -0.93911,0.765946 -2.21125,1.32542 -3.52335,1.551874 1.89821,2.104687 7.83929,0.845871 8.85834,-2.877294 -1.87158,-0.399624 -6.96679,-3.463409 -9.22466,1.791648 z"
   id="path42-0"
   style="fill:#ffffff;stroke-width:0.66604" /><path
   class="b"
   d="m 132.57918,82.403268 c -2.04475,-0.526172 -7.5196,-4.14943 -10.22372,1.525232 1.58517,-0.353001 3.0105,-0.532832 4.29596,-0.33302 -1.05901,0.799249 -2.48433,1.352062 -3.9363,1.538553 2.00478,2.404406 8.59192,1.305439 9.86406,-2.737425 z"
   id="path44-6"
   style="fill:#ffffff;stroke-width:0.66604" /><path
   class="b"
   d="m 115.29543,94.718352 c 1.53855,-0.6727 2.95056,-1.145589 4.28264,-1.198872 -0.93246,1.019041 -2.27786,1.871573 -3.7165,2.351122 2.4377,2.024762 8.91161,-0.406285 9.49773,-4.755527 -2.15797,-0.119888 -8.31884,-2.677482 -10.07053,3.603277 z"
   id="path46-2"
   style="fill:#ffffff;stroke-width:0.66604" /><path
   class="b"
   d="m 121.40302,101.49864 c -2.33114,0.20647 -9.29792,-1.565193 -10.32362,5.46153 1.56519,-0.96576 3.01716,-1.69174 4.43583,-1.96482 -0.86586,1.23884 -2.19128,2.37111 -3.66989,3.11041 2.89728,1.79165 9.51106,-1.84493 9.55102,-6.60046 z"
   id="path48"
   style="fill:#ffffff;stroke-width:0.66604" /><path
   class="b"
   d="m 118.7988,114.36654 c -2.53095,0.47289 -10.29032,-0.73931 -10.78319,7.03338 1.61848,-1.21885 3.14371,-2.16463 4.66894,-2.61087 -0.83255,1.4453 -2.18461,2.81069 -3.72982,3.77644 3.32354,1.65178 10.22372,-3.00384 9.84407,-8.20561 z"
   id="path50-6"
   style="fill:#ffffff;stroke-width:0.66604" /><path
   class="b"
   d="m 117.67986,125.55602 c -2.54428,1.19221 -10.99633,2.05806 -9.67091,10.37024 1.41201,-1.72504 2.79071,-3.14371 4.2893,-4.02954 -0.53283,1.75168 -1.62514,3.56331 -3.02382,5.00196 3.88301,0.82589 10.03056,-5.98104 8.40543,-11.34266 z"
   id="path52-1"
   style="fill:#ffffff;stroke-width:0.66604" /><path
   class="b"
   d="m 118.01288,136.83874 c -2.07139,2.13799 -9.96397,6.23413 -5.92776,13.76705 0.79925,-2.21792 1.65844,-4.11613 2.81735,-5.55478 0.0599,1.89822 -0.39297,4.07617 -1.27214,6.00769 4.03621,-0.69935 7.73273,-9.65759 4.37589,-14.21996 z"
   id="path54-8"
   style="fill:#ffffff;stroke-width:0.66604" /><path
   class="b"
   d="m 105.8643,161.9751 h 10.25702 c -3.35018,-1.77167 -7.70608,-0.47289 -10.25702,0 z"
   id="path56-7"
   style="fill:#ffffff;stroke-width:0.66604" /><path
   class="b"
   d="m 121.27647,161.9751 c 0.0666,-1.75169 0.26642,-3.34353 0.72599,-4.74887 0.55947,1.38536 0.88583,3.05046 0.93911,4.74887 h 1.42533 c 2.20459,-3.73649 1.84493,-11.43592 -2.27786,-14.00017 -1.11228,2.6242 -6.19417,8.71181 -2.49099,14.00017 z"
   id="path58-9"
   style="fill:#ffffff;stroke-width:0.66604" /><path
   class="b"
   d="m 131.58678,161.9751 c -0.65938,-0.59278 -1.39869,-1.05235 -2.21792,-1.33208 -0.0733,0.37964 -0.20647,0.82589 -0.35966,1.33208 z"
   id="path60-2"
   style="fill:#ffffff;stroke-width:0.66604" /><path
   class="b"
   d="m 256.44934,144.27841 c -2.93058,0.42626 -11.81555,-1.32542 -12.68807,7.59952 1.91154,-1.32542 3.70319,-2.34447 5.47485,-2.79071 -1.01904,1.62514 -2.62419,3.13705 -4.43582,4.17607 3.75646,2.05806 11.88215,-2.99052 11.64904,-8.99154 z"
   id="path62-0"
   style="fill:#ffffff;stroke-width:0.66604" /><path
   class="b"
   d="m 257.515,124.98322 c -2.59755,1.48527 -11.44923,3.14371 -9.4178,11.80223 1.36538,-1.95149 2.70412,-3.56331 4.22269,-4.63564 -0.43293,1.89822 -1.44531,3.903 -2.81069,5.54812 4.16275,0.52617 10.13713,-7.19324 8.0058,-12.71471 z"
   id="path64-2"
   style="fill:#ffffff;stroke-width:0.66604" /><path
   class="b"
   d="m 255.1772,109.41786 c -2.29784,1.71838 -10.47681,4.37588 -7.64614,12.2951 1.07899,-2.00478 2.17795,-3.69652 3.49671,-4.89539 -0.20647,1.84493 -0.95244,3.86303 -2.07138,5.58141 3.98292,-0.0133 8.81171,-8.0391 6.22081,-12.98778 z"
   id="path66-3"
   style="fill:#ffffff;stroke-width:0.66604" /><path
   class="b"
   d="m 244.99345,106.48062 c 0.60609,-2.06472 1.28546,-3.83639 2.26453,-5.22175 0.15985,1.72504 -0.13986,3.72316 -0.83255,5.53479 3.62326,-0.88583 6.50722,-9.244637 3.21698,-13.180935 -1.76501,2.064725 -8.71181,6.2741 -4.64896,12.867895 z"
   id="path68-7"
   style="fill:#ffffff;stroke-width:0.66604" /><path
   class="b"
   d="m 240.44439,80.718186 c -0.76594,2.47101 -5.14849,8.871656 0.61276,12.774652 -0.21313,-1.99146 -0.26642,-3.769788 0.0733,-5.334982 0.73931,1.392024 1.19222,3.203653 1.2455,5.015283 2.75075,-2.237895 2.2379,-10.476813 -1.93152,-12.454953 z"
   id="path70-5"
   style="fill:#ffffff;stroke-width:0.66604" /><path
   class="b"
   d="m 231.49281,71.83987 c -0.21313,2.344462 -2.89061,8.951581 2.91726,11.149514 -0.55948,-1.711724 -0.93912,-3.276918 -0.93246,-4.728886 0.91248,1.065664 1.65178,2.570915 2.03809,4.162751 2.01144,-2.570915 0.0266,-9.737508 -4.02289,-10.583379 z"
   id="path72-9"
   style="fill:#ffffff;stroke-width:0.66604" /><path
   class="b"
   d="m 226.30436,71.913134 c 1.2788,-2.590896 -1.64512,-8.305521 -5.24174,-8.218936 0.2198,2.044743 -0.93911,8.205616 4.39587,8.924939 -0.77261,-1.345401 -1.35872,-2.604217 -1.60516,-3.849712 0.9591,0.725983 1.84493,1.864912 2.44437,3.143709 z"
   id="path74-2"
   style="fill:#ffffff;stroke-width:0.66604" /><path
   class="b"
   d="m 208.19472,63.327876 c 1.35873,1.438647 4.04953,7.020064 8.61857,3.9696 -1.38537,-0.526172 -2.57092,-1.105627 -3.49006,-1.911536 1.17224,-0.08658 2.5243,0.199812 3.73649,0.785928 -0.51285,-2.883955 -6.11425,-5.354964 -8.865,-2.850653 z"
   id="path76-2"
   style="fill:#ffffff;stroke-width:0.66604" /><path
   class="b"
   d="m 214.08918,73.052063 c 1.01904,3.723165 6.96012,4.975321 8.85834,2.877294 -1.3121,-0.226454 -2.58424,-0.792588 -3.52336,-1.551874 1.17223,-0.126547 2.45769,0.09325 3.88302,0.472889 -2.25788,-5.255058 -7.35309,-2.191272 -9.22466,-1.791648 z"
   id="path78-8"
   style="fill:#ffffff;stroke-width:0.66604" /><path
   class="b"
   d="m 227.94282,83.59548 c 1.28546,-0.199812 2.71078,-0.01998 4.29596,0.33302 -2.70413,-5.674662 -8.17898,-2.058064 -10.22372,-1.525232 1.2788,4.042865 7.86593,5.141831 9.86406,2.737426 -1.45197,-0.186492 -2.8773,-0.745965 -3.9363,-1.538553 z"
   id="path80-9"
   style="fill:#ffffff;stroke-width:0.66604" /><path
   class="b"
   d="m 229.23494,91.115075 c 0.58611,4.342582 7.06002,6.780289 9.49773,4.755527 -1.43865,-0.479549 -2.77739,-1.332081 -3.7165,-2.351122 1.33208,0.05994 2.74408,0.526172 4.28263,1.198872 -1.75168,-6.280759 -7.91255,-3.729825 -10.07052,-3.603277 z"
   id="path82-7"
   style="fill:#ffffff;stroke-width:0.66604" /><path
   class="b"
   d="m 233.19788,101.49864 c 0.04,4.75553 6.6604,8.39211 9.55101,6.60046 -1.47861,-0.7393 -2.80403,-1.87157 -3.66988,-3.11041 1.42533,0.27308 2.87729,0.99906 4.43583,1.96482 -1.0257,-7.020063 -7.99248,-5.2484 -10.32363,-5.46153 z"
   id="path84-3"
   style="fill:#ffffff;stroke-width:0.66604" /><path
   class="b"
   d="m 245.64617,122.57216 c -1.54522,-0.96576 -2.89062,-2.33115 -3.72983,-3.77645 1.53189,0.44624 3.05047,1.39202 4.66894,2.61087 -0.49287,-7.77268 -8.25889,-6.56715 -10.78319,-7.03338 -0.37964,5.20177 6.52054,9.8574 9.84408,8.20562 z"
   id="path86"
   style="fill:#ffffff;stroke-width:0.66604" /><path
   class="b"
   d="m 246.59194,135.93292 c 1.32542,-8.31218 -7.12663,-9.17803 -9.6709,-10.37024 -1.6318,5.36162 4.51575,12.16189 8.40543,11.34266 -1.39869,-1.43865 -2.49099,-3.25028 -3.02382,-5.00196 1.49859,0.89249 2.87729,2.3045 4.28929,4.02954 z"
   id="path88-6"
   style="fill:#ffffff;stroke-width:0.66604" /><path
   class="b"
   d="m 240.9639,151.0587 c -0.87251,-1.93152 -1.33208,-4.10947 -1.27213,-6.00769 1.15891,1.43865 2.02476,3.33686 2.81735,5.55478 4.0362,-7.53958 -3.85638,-11.63572 -5.92776,-13.76705 -3.35684,4.56237 0.33968,13.52061 4.37588,14.21996 z"
   id="path90-1"
   style="fill:#ffffff;stroke-width:0.66604" /><path
   class="b"
   d="m 238.47957,161.9751 h 10.25702 c -2.55093,-0.47289 -6.90683,-1.77167 -10.25702,0 z"
   id="path92"
   style="fill:#ffffff;stroke-width:0.66604" /><path
   class="b"
   d="m 231.65266,161.9751 c 0.0533,-1.70507 0.37964,-3.36351 0.93912,-4.74887 0.45957,1.412 0.65938,2.99718 0.72598,4.74887 h 1.67842 c 3.70319,-5.28836 -1.37204,-11.37597 -2.49099,-14.00017 -4.12945,2.56425 -4.48245,10.25702 -2.27785,14.00017 z"
   id="path94"
   style="fill:#ffffff;stroke-width:0.66604" /><path
   class="b"
   d="m 225.5917,161.9751 c -0.15985,-0.50619 -0.2864,-0.95244 -0.35967,-1.33208 -0.81923,0.27973 -1.55853,0.7393 -2.21791,1.33208 z"
   id="path96-2"
   style="fill:#ffffff;stroke-width:0.66604" /><rect
   class="b"
   x="119.60471"
   y="249.3196"
   width="115.39147"
   height="1.9115354"
   id="rect98"
   style="fill:#ffffff;stroke-width:0.66604" /><path
   class="b"
   d="m 106.67687,232.12245 h -1.43199 c -1.03236,0 -1.7983,0.5395 -2.31115,1.61182 l -4.615664,9.65758 h 3.589954 l 0.89916,-1.88489 h 6.07428 l 0.89916,1.88489 h 3.5833 l -4.61566,-9.65758 c -0.2531,-0.53949 -0.53284,-0.93912 -0.83921,-1.21219 -0.30638,-0.26642 -0.71267,-0.40629 -1.21886,-0.40629 z m -2.55759,6.70037 1.72504,-3.25028 1.75169,3.25028 z"
   id="path100-9"
   style="fill:#ffffff;stroke-width:0.66604" /><path
   class="b"
   d="m 114.38962,236.38511 v 7.01341 h 3.23029 v -4.256 h 3.2969 l 3.2969,4.256 h 3.65656 l -3.09042,-4.256 h 0.91913 c 0.20647,0 0.41961,-0.0533 0.6394,-0.15985 0.21313,-0.10657 0.41294,-0.23978 0.58611,-0.41295 0.17318,-0.17317 0.31304,-0.36632 0.41295,-0.57945 0.0999,-0.21313 0.15985,-0.43959 0.15985,-0.65938 v -3.38349 c 0,-0.22645 -0.0533,-0.44624 -0.15985,-0.65938 -0.10657,-0.21313 -0.24644,-0.41294 -0.41295,-0.57945 -0.17317,-0.17317 -0.36632,-0.31304 -0.58611,-0.41295 -0.21979,-0.10656 -0.43293,-0.15985 -0.6394,-0.15985 h -11.29604 v 3.02383 h 9.86405 v 1.23217 h -9.86405 z"
   id="path102-3"
   style="fill:#ffffff;stroke-width:0.66604" /><polygon
   class="b"
   points="225.11,518.52 232.75,518.52 232.75,530.9 237.6,530.9 237.6,518.52 245.24,518.52 245.24,513.97 225.11,513.97 "
   id="polygon104"
   style="fill:#ffffff"
   transform="matrix(0.66604024,0,0,0.66604024,-21.043005,-110.20225)" /><path
   class="b"
   d="m 143.72869,240.37469 v 3.02383 h 11.90214 c 0.20647,0 0.4196,-0.0533 0.6394,-0.15985 0.21979,-0.10657 0.41294,-0.23978 0.58611,-0.41295 0.17317,-0.17317 0.31304,-0.36632 0.41295,-0.57945 0.10656,-0.21314 0.15985,-0.43959 0.15985,-0.65938 v -3.38349 c 0,-0.22645 -0.0533,-0.44625 -0.15985,-0.65938 -0.10657,-0.21979 -0.24644,-0.41294 -0.41295,-0.58611 -0.17317,-0.17317 -0.36632,-0.31304 -0.58611,-0.41295 -0.21314,-0.10657 -0.43293,-0.15319 -0.6394,-0.15319 h -8.67184 v -1.23217 h 10.47015 v -3.02383 H 145.527 c -0.20647,0 -0.41961,0.0533 -0.6394,0.15985 -0.21979,0.10657 -0.41295,0.24644 -0.58612,0.41295 -0.17317,0.17317 -0.31303,0.36632 -0.41294,0.57945 -0.10657,0.2198 -0.15985,0.43959 -0.15985,0.65938 v 3.38349 c 0,0.22645 0.0533,0.44625 0.15985,0.65938 0.10657,0.21313 0.23977,0.41294 0.41294,0.57945 0.17317,0.16651 0.36633,0.31304 0.58612,0.41295 0.21313,0.10656 0.42627,0.15985 0.6394,0.15985 h 8.67184 v 1.23217 z"
   id="path106-1"
   style="fill:#ffffff;stroke-width:0.66604" /><path
   class="b"
   d="m 166.94685,240.37469 v 3.02383 h 11.90214 c 0.20647,0 0.41961,-0.0533 0.6394,-0.15985 0.21313,-0.10657 0.41295,-0.23978 0.57946,-0.41295 0.17317,-0.17317 0.31303,-0.36632 0.41294,-0.57945 0.10657,-0.21314 0.15319,-0.43959 0.15319,-0.65938 v -3.38349 c 0,-0.22645 -0.0533,-0.44625 -0.15319,-0.65938 -0.10657,-0.21979 -0.24643,-0.41294 -0.41294,-0.58611 -0.17318,-0.17317 -0.36633,-0.31304 -0.57946,-0.41295 -0.21979,-0.10657 -0.43293,-0.15319 -0.6394,-0.15319 h -8.67184 v -1.23217 h 10.47015 v -3.02383 h -11.90214 c -0.21313,0 -0.4196,0.0533 -0.6394,0.15985 -0.21979,0.10657 -0.41294,0.24644 -0.58611,0.41295 -0.17317,0.17317 -0.31304,0.36632 -0.41295,0.57945 -0.10656,0.2198 -0.15985,0.43959 -0.15985,0.65938 v 3.38349 c 0,0.22645 0.0533,0.44625 0.15985,0.65938 0.10657,0.21313 0.23978,0.41294 0.41295,0.57945 0.17317,0.17317 0.36632,0.31304 0.58611,0.41295 0.21314,0.10656 0.42627,0.15985 0.6394,0.15985 h 8.67185 v 1.23217 z"
   id="path108-9"
   style="fill:#ffffff;stroke-width:0.66604" /><path
   class="b"
   d="m 195.99953,236.49834 v -2.5576 c 0,-0.22645 -0.0533,-0.44624 -0.15319,-0.65938 -0.10657,-0.21313 -0.24644,-0.41294 -0.41295,-0.57945 -0.16651,-0.16651 -0.36632,-0.31304 -0.57945,-0.41295 -0.21979,-0.10656 -0.43293,-0.15985 -0.6394,-0.15985 h -10.33028 c -0.21314,0 -0.41961,0.0533 -0.6394,0.15985 -0.2198,0.10657 -0.41295,0.24644 -0.58612,0.41295 -0.17317,0.17317 -0.31304,0.36632 -0.41294,0.57945 -0.10657,0.2198 -0.15985,0.43959 -0.15985,0.65938 v 7.64615 c 0,0.22645 0.0533,0.44624 0.15985,0.65938 0.10656,0.21979 0.23977,0.41294 0.41294,0.57945 0.17317,0.17317 0.36632,0.31304 0.58612,0.41295 0.21313,0.10656 0.42626,0.15985 0.6394,0.15985 h 10.33028 c 0.20647,0 0.41961,-0.0533 0.6394,-0.15985 0.21313,-0.10657 0.41294,-0.23978 0.57945,-0.41295 0.17317,-0.17317 0.31304,-0.36632 0.41295,-0.57945 0.10657,-0.21314 0.15319,-0.43959 0.15319,-0.65938 v -2.5576 h -3.2303 v 1.3454 h -7.46631 v -5.22175 h 7.46631 v 1.3454 z"
   id="path110-4"
   style="fill:#ffffff;stroke-width:0.66604" /><polygon
   class="b"
   points="343.74,520.37 332.87,520.37 332.87,513.97 328.02,513.97 328.02,530.9 332.87,530.9 332.87,524.51 343.74,524.51 343.74,530.9 348.58,530.9 348.58,513.97 343.74,513.97 "
   id="polygon112"
   style="fill:#ffffff"
   transform="matrix(0.66604024,0,0,0.66604024,-21.043005,-110.20225)" /><path
   class="b"
   d="m 213.7162,243.24533 c 0.21313,0.10656 0.42626,0.15985 0.6394,0.15985 h 10.3769 c 0.20648,0 0.41961,-0.0533 0.6394,-0.15985 0.21314,-0.10657 0.41295,-0.23978 0.57946,-0.41295 0.17317,-0.17317 0.31304,-0.36632 0.41294,-0.57945 0.10657,-0.21314 0.15319,-0.43959 0.15319,-0.65938 v -7.64615 c 0,-0.22645 -0.0533,-0.44624 -0.15319,-0.65938 -0.10656,-0.21313 -0.24643,-0.41294 -0.41294,-0.57945 -0.16651,-0.16651 -0.36632,-0.31304 -0.57946,-0.41295 -0.21979,-0.10656 -0.43292,-0.15985 -0.6394,-0.15985 h -10.3769 c -0.21314,0 -0.41961,0.0533 -0.6394,0.15985 -0.21979,0.10657 -0.41295,0.24644 -0.58612,0.41295 -0.17317,0.17317 -0.31304,0.36632 -0.41294,0.57945 -0.10657,0.2198 -0.15985,0.43959 -0.15985,0.65938 v 7.64615 c 0,0.22645 0.0533,0.44624 0.15985,0.65938 0.10656,0.21979 0.23977,0.41294 0.41294,0.57945 0.17317,0.17317 0.36633,0.31304 0.58612,0.41295 z m 2.07138,-8.09239 h 7.50628 v 5.22175 h -7.50628 z"
   id="path114-7"
   style="fill:#ffffff;stroke-width:0.66604" /><path
   class="b"
   d="m 241.35021,242.82572 c 0.17317,-0.17317 0.31304,-0.36632 0.41294,-0.57945 0.10657,-0.21314 0.15985,-0.43959 0.15985,-0.65938 v -7.64615 c 0,-0.22645 -0.0533,-0.44624 -0.15985,-0.65938 -0.10656,-0.21313 -0.23977,-0.41294 -0.41294,-0.57945 -0.17317,-0.17317 -0.36632,-0.31304 -0.57946,-0.41295 -0.21313,-0.10656 -0.43292,-0.15985 -0.6394,-0.15985 h -10.3769 c -0.21314,0 -0.41961,0.0533 -0.6394,0.15985 -0.21313,0.10657 -0.41295,0.24644 -0.57946,0.41295 -0.16651,0.16651 -0.31304,0.36632 -0.41294,0.57945 -0.10657,0.2198 -0.15985,0.43959 -0.15985,0.65938 v 7.64615 c 0,0.22645 0.0533,0.44624 0.15985,0.65938 0.10657,0.21979 0.23977,0.41294 0.41294,0.57945 0.17317,0.17317 0.36633,0.31304 0.57946,0.41295 0.21313,0.10656 0.42626,0.15985 0.6394,0.15985 h 10.3769 c 0.20648,0 0.41961,-0.0533 0.6394,-0.15985 0.21314,-0.10657 0.41295,-0.23978 0.57946,-0.41295 z m -2.6575,-2.45103 h -7.50628 v -5.22175 h 7.50628 z"
   id="path116-8"
   style="fill:#ffffff;stroke-width:0.66604" /><path
   class="b"
   d="m 243.36165,232.12245 v 9.45778 c 0,0.22645 0.0533,0.44624 0.15985,0.65938 0.10657,0.21979 0.23977,0.41294 0.41294,0.57945 0.17317,0.17317 0.36633,0.31304 0.57946,0.41295 0.21313,0.10656 0.42626,0.15984 0.6394,0.15984 h 10.75655 v -3.02382 h -9.32457 v -8.24558 h -3.23029 z"
   id="path118-4"
   style="fill:#ffffff;stroke-width:0.66604" /><path
   class="b"
   d="m 159.33401,282.77481 v -9.45111 c 0,-0.20647 -0.0466,-0.40628 -0.14653,-0.60609 -0.0932,-0.19982 -0.22645,-0.37965 -0.37964,-0.53284 -0.15985,-0.15985 -0.33302,-0.28639 -0.53283,-0.37964 -0.19981,-0.0932 -0.39297,-0.14653 -0.58612,-0.14653 h -3.43676 v 2.77739 h 2.118 v 8.34548 h 2.96388 z"
   id="path120-5"
   style="fill:#ffffff;stroke-width:0.66604" /><path
   class="b"
   d="m 172.15529,282.62829 c 0.19981,-0.0933 0.37964,-0.2198 0.53283,-0.37965 0.15319,-0.15985 0.2864,-0.33302 0.37964,-0.53283 0.0933,-0.19981 0.14653,-0.39962 0.14653,-0.6061 v -7.78601 c 0,-0.20647 -0.0466,-0.40628 -0.14653,-0.60609 -0.0932,-0.19982 -0.22645,-0.37965 -0.37964,-0.53284 -0.15985,-0.15985 -0.33302,-0.28639 -0.53283,-0.37964 -0.19981,-0.0932 -0.39297,-0.14653 -0.58612,-0.14653 h -9.52437 c -0.19316,0 -0.37299,0.0466 -0.54616,0.14653 -0.17317,0.0932 -0.3197,0.22645 -0.43958,0.37964 -0.12655,0.15985 -0.22646,0.33302 -0.29972,0.53284 -0.0733,0.19981 -0.11323,0.39962 -0.11323,0.60609 v 3.10375 c 0,0.20647 0.0466,0.40629 0.14653,0.6061 0.0932,0.19981 0.21979,0.37964 0.37964,0.53283 0.15985,0.15985 0.33302,0.2864 0.53284,0.37964 0.19981,0.0933 0.39296,0.14653 0.58611,0.14653 h 7.95918 v 1.90488 h -9.6043 v 2.77738 h 10.92306 c 0.19315,0 0.38631,-0.0466 0.58612,-0.14652 z m -1.90488,-7.06669 h -6.64042 v -1.13227 h 6.64042 z"
   id="path122"
   style="fill:#ffffff;stroke-width:0.66604" /><path
   class="b"
   d="m 186.04223,282.62829 c 0.19981,-0.0933 0.37964,-0.2198 0.53283,-0.37965 0.15319,-0.15985 0.2864,-0.33302 0.37964,-0.53283 0.0932,-0.19981 0.14653,-0.39962 0.14653,-0.6061 v -7.78601 c 0,-0.20647 -0.0466,-0.40628 -0.14653,-0.60609 -0.0932,-0.19982 -0.22645,-0.37965 -0.37964,-0.53284 -0.15985,-0.15985 -0.33302,-0.28639 -0.53283,-0.37964 -0.19982,-0.0932 -0.39297,-0.14653 -0.58612,-0.14653 h -9.52437 c -0.19316,0 -0.37299,0.0466 -0.54616,0.14653 -0.17317,0.0932 -0.3197,0.22645 -0.43958,0.37964 -0.12655,0.15985 -0.22646,0.33302 -0.29972,0.53284 -0.0733,0.19981 -0.11323,0.39962 -0.11323,0.60609 v 3.10375 c 0,0.20647 0.0466,0.40629 0.14653,0.6061 0.0933,0.19981 0.21979,0.37964 0.37964,0.53283 0.15985,0.15985 0.33302,0.2864 0.53283,0.37964 0.19982,0.0933 0.39297,0.14653 0.58612,0.14653 h 7.95918 v 1.90488 h -9.6043 v 2.77738 h 10.92306 c 0.19315,0 0.3863,-0.0466 0.58612,-0.14652 z m -1.90488,-7.06669 h -6.64042 v -1.13227 h 6.64042 z"
   id="path124"
   style="fill:#ffffff;stroke-width:0.66604" /><path
   class="b"
   d="m 200.8816,282.77481 v -11.12287 h -2.96388 v 3.90966 h -6.54051 v -3.90966 h -2.96388 v 4.76885 c 0,0.20647 0.0466,0.40628 0.14653,0.6061 0.0932,0.19981 0.21979,0.37964 0.37964,0.53283 0.15985,0.15985 0.33302,0.2864 0.53283,0.37964 0.19982,0.0932 0.39297,0.14653 0.58612,0.14653 h 7.85927 v 4.68226 h 2.96388 z"
   id="path126"
   style="fill:#ffffff;stroke-width:0.66604" /></svg>
